<mxfile host="app.diagrams.net" agent="Mozilla/5.0 (Macintosh; Intel Mac OS X 10_15_7) AppleWebKit/605.1.15 (KHTML, like Gecko) Version/16.5 Safari/605.1.15" version="26.0.4" pages="2">
  <diagram name="challenge3" id="QVyV8HPb8yY-LVWm9Y0O">
    <mxGraphModel dx="1194" dy="562" grid="1" gridSize="10" guides="1" tooltips="1" connect="1" arrows="1" fold="1" page="1" pageScale="1" pageWidth="827" pageHeight="1169" math="0" shadow="0">
      <root>
        <mxCell id="0" />
        <mxCell id="1" parent="0" />
        <mxCell id="qEw3fzR9VckqOL5sZoZO-1" value="Flask app&lt;div&gt;(challenge1.py)&lt;/div&gt;" style="whiteSpace=wrap;html=1;aspect=fixed;" parent="1" vertex="1">
          <mxGeometry x="106.5" y="270" width="138.5" height="138.5" as="geometry" />
        </mxCell>
        <mxCell id="qEw3fzR9VckqOL5sZoZO-2" value="PC HÃ´te" style="whiteSpace=wrap;html=1;aspect=fixed;" parent="1" vertex="1">
          <mxGeometry x="344" y="40" width="138.5" height="138.5" as="geometry" />
        </mxCell>
        <mxCell id="qEw3fzR9VckqOL5sZoZO-3" value="&lt;span style=&quot;text-align: start;&quot;&gt;&lt;font style=&quot;font-size: 12px;&quot;&gt;mongodb_server&lt;/font&gt;&lt;/span&gt;" style="whiteSpace=wrap;html=1;aspect=fixed;" parent="1" vertex="1">
          <mxGeometry x="380" y="280" width="140" height="140" as="geometry" />
        </mxCell>
        <mxCell id="qEw3fzR9VckqOL5sZoZO-4" value="" style="endArrow=none;html=1;rounded=0;exitX=0.25;exitY=0;exitDx=0;exitDy=0;entryX=0;entryY=0.5;entryDx=0;entryDy=0;" parent="1" source="qEw3fzR9VckqOL5sZoZO-1" target="qEw3fzR9VckqOL5sZoZO-2" edge="1">
          <mxGeometry width="50" height="50" relative="1" as="geometry">
            <mxPoint x="390" y="250" as="sourcePoint" />
            <mxPoint x="440" y="200" as="targetPoint" />
          </mxGeometry>
        </mxCell>
        <mxCell id="qEw3fzR9VckqOL5sZoZO-5" value="" style="endArrow=none;html=1;rounded=0;entryX=0.5;entryY=1;entryDx=0;entryDy=0;exitX=0.5;exitY=0;exitDx=0;exitDy=0;" parent="1" source="qEw3fzR9VckqOL5sZoZO-3" target="qEw3fzR9VckqOL5sZoZO-2" edge="1">
          <mxGeometry width="50" height="50" relative="1" as="geometry">
            <mxPoint x="440" y="270" as="sourcePoint" />
            <mxPoint x="440" y="200" as="targetPoint" />
          </mxGeometry>
        </mxCell>
        <mxCell id="qEw3fzR9VckqOL5sZoZO-6" value="&lt;div&gt;Port: 27017&lt;/div&gt;&lt;div&gt;172.18.0.2&lt;/div&gt;" style="text;html=1;align=center;verticalAlign=middle;whiteSpace=wrap;rounded=0;" parent="1" vertex="1">
          <mxGeometry x="440" y="244" width="96" height="30" as="geometry" />
        </mxCell>
        <mxCell id="qEw3fzR9VckqOL5sZoZO-7" value="IP : 127.0.0.1&lt;div&gt;Port : 5000&lt;/div&gt;" style="text;html=1;align=center;verticalAlign=middle;whiteSpace=wrap;rounded=0;" parent="1" vertex="1">
          <mxGeometry x="70" y="220" width="135" height="30" as="geometry" />
        </mxCell>
        <mxCell id="qEw3fzR9VckqOL5sZoZO-8" value="Port : 5000" style="text;html=1;align=center;verticalAlign=middle;whiteSpace=wrap;rounded=0;" parent="1" vertex="1">
          <mxGeometry x="245" y="90" width="135" height="30" as="geometry" />
        </mxCell>
        <mxCell id="qEw3fzR9VckqOL5sZoZO-9" value="Port : 27017" style="text;html=1;align=center;verticalAlign=middle;whiteSpace=wrap;rounded=0;" parent="1" vertex="1">
          <mxGeometry x="382.5" y="178.5" width="135" height="30" as="geometry" />
        </mxCell>
        <mxCell id="qEw3fzR9VckqOL5sZoZO-10" value="" style="endArrow=classic;startArrow=classic;html=1;rounded=0;entryX=0;entryY=0.5;entryDx=0;entryDy=0;exitX=1;exitY=0.5;exitDx=0;exitDy=0;" parent="1" source="qEw3fzR9VckqOL5sZoZO-1" target="qEw3fzR9VckqOL5sZoZO-3" edge="1">
          <mxGeometry width="50" height="50" relative="1" as="geometry">
            <mxPoint x="270" y="310" as="sourcePoint" />
            <mxPoint x="440" y="200" as="targetPoint" />
          </mxGeometry>
        </mxCell>
      </root>
    </mxGraphModel>
  </diagram>
  <diagram id="j4DH2D5q0OTO39qp8Iy4" name="Page-2">
    <mxGraphModel dx="1405" dy="1830" grid="1" gridSize="10" guides="1" tooltips="1" connect="1" arrows="1" fold="1" page="1" pageScale="1" pageWidth="827" pageHeight="1169" math="0" shadow="0">
      <root>
        <mxCell id="0" />
        <mxCell id="1" parent="0" />
        <mxCell id="RNrug4H_M12smfIYPm7i-1" value="" style="rounded=1;whiteSpace=wrap;html=1;" vertex="1" parent="1">
          <mxGeometry x="43" y="100" width="747" height="500" as="geometry" />
        </mxCell>
        <mxCell id="RNrug4H_M12smfIYPm7i-2" value="webdb-service" style="ellipse;whiteSpace=wrap;html=1;" vertex="1" parent="1">
          <mxGeometry x="353" y="220" width="120" height="80" as="geometry" />
        </mxCell>
        <mxCell id="RNrug4H_M12smfIYPm7i-3" value="webnodb-service" style="ellipse;whiteSpace=wrap;html=1;" vertex="1" parent="1">
          <mxGeometry x="560" y="220" width="120" height="80" as="geometry" />
        </mxCell>
        <mxCell id="RNrug4H_M12smfIYPm7i-4" value="mongodb-service" style="ellipse;whiteSpace=wrap;html=1;" vertex="1" parent="1">
          <mxGeometry x="150" y="220" width="120" height="80" as="geometry" />
        </mxCell>
        <mxCell id="RNrug4H_M12smfIYPm7i-6" value="Pod MongoDB&lt;div&gt;10.42.1.173&lt;br&gt;&lt;/div&gt;" style="rounded=0;whiteSpace=wrap;html=1;" vertex="1" parent="1">
          <mxGeometry x="130" y="473" width="120" height="60" as="geometry" />
        </mxCell>
        <mxCell id="RNrug4H_M12smfIYPm7i-7" value="Pod webnodb&lt;div&gt;10.42.2.132&lt;br&gt;&lt;/div&gt;" style="rounded=0;whiteSpace=wrap;html=1;" vertex="1" parent="1">
          <mxGeometry x="580" y="470" width="120" height="60" as="geometry" />
        </mxCell>
        <mxCell id="RNrug4H_M12smfIYPm7i-9" value="mongodb_deployment" style="shape=parallelogram;perimeter=parallelogramPerimeter;whiteSpace=wrap;html=1;fixedSize=1;" vertex="1" parent="1">
          <mxGeometry x="130" y="588" width="150" height="65" as="geometry" />
        </mxCell>
        <mxCell id="RNrug4H_M12smfIYPm7i-10" value="webnodb_deployment" style="shape=parallelogram;perimeter=parallelogramPerimeter;whiteSpace=wrap;html=1;fixedSize=1;" vertex="1" parent="1">
          <mxGeometry x="580" y="588" width="150" height="65" as="geometry" />
        </mxCell>
        <mxCell id="RNrug4H_M12smfIYPm7i-11" value="webdb_deployment" style="shape=parallelogram;perimeter=parallelogramPerimeter;whiteSpace=wrap;html=1;fixedSize=1;" vertex="1" parent="1">
          <mxGeometry x="353" y="588" width="157" height="65" as="geometry" />
        </mxCell>
        <mxCell id="RNrug4H_M12smfIYPm7i-12" value="ClusterIp&amp;nbsp;&lt;div&gt;DNS&lt;/div&gt;" style="ellipse;whiteSpace=wrap;html=1;" vertex="1" parent="1">
          <mxGeometry x="470" y="280" width="102" height="65" as="geometry" />
        </mxCell>
        <mxCell id="RNrug4H_M12smfIYPm7i-13" value="" style="endArrow=classic;html=1;rounded=0;exitX=0.5;exitY=1;exitDx=0;exitDy=0;entryX=0.894;entryY=-0.099;entryDx=0;entryDy=0;entryPerimeter=0;" edge="1" parent="1" source="RNrug4H_M12smfIYPm7i-3" target="RNrug4H_M12smfIYPm7i-40">
          <mxGeometry width="50" height="50" relative="1" as="geometry">
            <mxPoint x="490" y="390" as="sourcePoint" />
            <mxPoint x="540" y="340" as="targetPoint" />
          </mxGeometry>
        </mxCell>
        <mxCell id="RNrug4H_M12smfIYPm7i-31" value="80:5000" style="edgeLabel;html=1;align=center;verticalAlign=middle;resizable=0;points=[];" vertex="1" connectable="0" parent="RNrug4H_M12smfIYPm7i-13">
          <mxGeometry x="-0.3462" y="4" relative="1" as="geometry">
            <mxPoint as="offset" />
          </mxGeometry>
        </mxCell>
        <mxCell id="RNrug4H_M12smfIYPm7i-17" value="" style="endArrow=classic;html=1;rounded=0;exitX=0.5;exitY=1;exitDx=0;exitDy=0;entryX=0.402;entryY=-0.063;entryDx=0;entryDy=0;entryPerimeter=0;" edge="1" parent="1" source="RNrug4H_M12smfIYPm7i-2" target="RNrug4H_M12smfIYPm7i-40">
          <mxGeometry width="50" height="50" relative="1" as="geometry">
            <mxPoint x="490" y="390" as="sourcePoint" />
            <mxPoint x="362.0500000000002" y="403.72" as="targetPoint" />
          </mxGeometry>
        </mxCell>
        <mxCell id="RNrug4H_M12smfIYPm7i-32" value="80:5000" style="edgeLabel;html=1;align=center;verticalAlign=middle;resizable=0;points=[];" vertex="1" connectable="0" parent="RNrug4H_M12smfIYPm7i-17">
          <mxGeometry x="-0.3299" y="-1" relative="1" as="geometry">
            <mxPoint as="offset" />
          </mxGeometry>
        </mxCell>
        <mxCell id="RNrug4H_M12smfIYPm7i-18" value="" style="endArrow=classic;html=1;rounded=0;entryX=0.044;entryY=-0.034;entryDx=0;entryDy=0;entryPerimeter=0;" edge="1" parent="1" target="RNrug4H_M12smfIYPm7i-40">
          <mxGeometry width="50" height="50" relative="1" as="geometry">
            <mxPoint x="210" y="298" as="sourcePoint" />
            <mxPoint x="160" y="402" as="targetPoint" />
          </mxGeometry>
        </mxCell>
        <mxCell id="RNrug4H_M12smfIYPm7i-39" value="27017:27017" style="edgeLabel;html=1;align=center;verticalAlign=middle;resizable=0;points=[];" vertex="1" connectable="0" parent="RNrug4H_M12smfIYPm7i-18">
          <mxGeometry x="-0.2395" y="-2" relative="1" as="geometry">
            <mxPoint as="offset" />
          </mxGeometry>
        </mxCell>
        <mxCell id="RNrug4H_M12smfIYPm7i-24" value="" style="endArrow=classic;html=1;rounded=0;exitX=0;exitY=1;exitDx=0;exitDy=0;entryX=0.5;entryY=0;entryDx=0;entryDy=0;" edge="1" parent="1" target="RNrug4H_M12smfIYPm7i-4">
          <mxGeometry width="50" height="50" relative="1" as="geometry">
            <mxPoint x="383" y="116" as="sourcePoint" />
            <mxPoint x="540" y="340" as="targetPoint" />
          </mxGeometry>
        </mxCell>
        <mxCell id="RNrug4H_M12smfIYPm7i-25" value="Pod webdb&lt;div&gt;10.42.1.172&lt;br&gt;&lt;/div&gt;" style="rounded=0;whiteSpace=wrap;html=1;" vertex="1" parent="1">
          <mxGeometry x="324" y="471" width="66" height="60" as="geometry" />
        </mxCell>
        <mxCell id="RNrug4H_M12smfIYPm7i-27" value="Replicat" style="rounded=0;whiteSpace=wrap;html=1;" vertex="1" parent="1">
          <mxGeometry x="390" y="471" width="50" height="60" as="geometry" />
        </mxCell>
        <mxCell id="RNrug4H_M12smfIYPm7i-28" value="Replicat" style="rounded=0;whiteSpace=wrap;html=1;" vertex="1" parent="1">
          <mxGeometry x="440" y="471" width="50" height="60" as="geometry" />
        </mxCell>
        <mxCell id="RNrug4H_M12smfIYPm7i-29" value="" style="endArrow=classic;html=1;rounded=0;entryX=0.802;entryY=0.019;entryDx=0;entryDy=0;exitX=0.67;exitY=0.938;exitDx=0;exitDy=0;exitPerimeter=0;entryPerimeter=0;" edge="1" parent="1" source="RNrug4H_M12smfIYPm7i-12" target="RNrug4H_M12smfIYPm7i-40">
          <mxGeometry width="50" height="50" relative="1" as="geometry">
            <mxPoint x="540" y="340" as="sourcePoint" />
            <mxPoint x="540" y="340" as="targetPoint" />
            <Array as="points" />
          </mxGeometry>
        </mxCell>
        <mxCell id="RNrug4H_M12smfIYPm7i-30" value="" style="endArrow=classic;html=1;rounded=0;entryX=0.5;entryY=0;entryDx=0;entryDy=0;exitX=0;exitY=1;exitDx=0;exitDy=0;" edge="1" parent="1" source="RNrug4H_M12smfIYPm7i-12" target="RNrug4H_M12smfIYPm7i-40">
          <mxGeometry width="50" height="50" relative="1" as="geometry">
            <mxPoint x="490" y="390" as="sourcePoint" />
            <mxPoint x="540" y="340" as="targetPoint" />
          </mxGeometry>
        </mxCell>
        <mxCell id="RNrug4H_M12smfIYPm7i-33" value="" style="endArrow=classic;html=1;rounded=0;exitX=0.5;exitY=0;exitDx=0;exitDy=0;entryX=0.5;entryY=1;entryDx=0;entryDy=0;" edge="1" parent="1">
          <mxGeometry width="50" height="50" relative="1" as="geometry">
            <mxPoint x="655" y="588" as="sourcePoint" />
            <mxPoint x="640" y="528" as="targetPoint" />
          </mxGeometry>
        </mxCell>
        <mxCell id="RNrug4H_M12smfIYPm7i-34" value="" style="endArrow=classic;html=1;rounded=0;exitX=0.5;exitY=0;exitDx=0;exitDy=0;entryX=0.5;entryY=1;entryDx=0;entryDy=0;" edge="1" parent="1">
          <mxGeometry width="50" height="50" relative="1" as="geometry">
            <mxPoint x="431.5" y="588" as="sourcePoint" />
            <mxPoint x="415" y="531" as="targetPoint" />
          </mxGeometry>
        </mxCell>
        <mxCell id="RNrug4H_M12smfIYPm7i-35" value="" style="endArrow=classic;html=1;rounded=0;entryX=0.5;entryY=1;entryDx=0;entryDy=0;exitX=0.5;exitY=0;exitDx=0;exitDy=0;" edge="1" parent="1">
          <mxGeometry width="50" height="50" relative="1" as="geometry">
            <mxPoint x="431.5" y="588" as="sourcePoint" />
            <mxPoint x="465" y="531" as="targetPoint" />
          </mxGeometry>
        </mxCell>
        <mxCell id="RNrug4H_M12smfIYPm7i-36" value="" style="endArrow=classic;html=1;rounded=0;exitX=0.5;exitY=0;exitDx=0;exitDy=0;entryX=0.5;entryY=1;entryDx=0;entryDy=0;" edge="1" parent="1">
          <mxGeometry width="50" height="50" relative="1" as="geometry">
            <mxPoint x="431.5" y="588" as="sourcePoint" />
            <mxPoint x="356.9999999999998" y="531" as="targetPoint" />
          </mxGeometry>
        </mxCell>
        <mxCell id="RNrug4H_M12smfIYPm7i-38" value="" style="endArrow=classic;html=1;rounded=0;exitX=0.5;exitY=0;exitDx=0;exitDy=0;" edge="1" parent="1">
          <mxGeometry width="50" height="50" relative="1" as="geometry">
            <mxPoint x="205" y="588" as="sourcePoint" />
            <mxPoint x="195.29411764705878" y="533" as="targetPoint" />
          </mxGeometry>
        </mxCell>
        <mxCell id="RNrug4H_M12smfIYPm7i-40" value="RÃ©seau des pods" style="rounded=0;whiteSpace=wrap;html=1;" vertex="1" parent="1">
          <mxGeometry x="140" y="388" width="550" height="40" as="geometry" />
        </mxCell>
        <mxCell id="gtnXbsTn_2QHaUjAw1lT-2" value="" style="endArrow=classic;startArrow=classic;html=1;rounded=0;exitX=0.5;exitY=1;exitDx=0;exitDy=0;entryX=0.5;entryY=0;entryDx=0;entryDy=0;" edge="1" parent="1" source="RNrug4H_M12smfIYPm7i-40" target="RNrug4H_M12smfIYPm7i-27">
          <mxGeometry width="50" height="50" relative="1" as="geometry">
            <mxPoint x="490" y="380" as="sourcePoint" />
            <mxPoint x="540" y="330" as="targetPoint" />
          </mxGeometry>
        </mxCell>
        <mxCell id="gtnXbsTn_2QHaUjAw1lT-3" value="app:webdb" style="edgeLabel;html=1;align=center;verticalAlign=middle;resizable=0;points=[];" vertex="1" connectable="0" parent="gtnXbsTn_2QHaUjAw1lT-2">
          <mxGeometry x="-0.0506" relative="1" as="geometry">
            <mxPoint as="offset" />
          </mxGeometry>
        </mxCell>
        <mxCell id="gtnXbsTn_2QHaUjAw1lT-4" value="" style="endArrow=classic;startArrow=classic;html=1;rounded=0;exitX=0.904;exitY=0.981;exitDx=0;exitDy=0;entryX=0.5;entryY=0;entryDx=0;entryDy=0;exitPerimeter=0;" edge="1" parent="1" source="RNrug4H_M12smfIYPm7i-40" target="RNrug4H_M12smfIYPm7i-7">
          <mxGeometry width="50" height="50" relative="1" as="geometry">
            <mxPoint x="425" y="438" as="sourcePoint" />
            <mxPoint x="425" y="481" as="targetPoint" />
          </mxGeometry>
        </mxCell>
        <mxCell id="gtnXbsTn_2QHaUjAw1lT-5" value="app:webnodb" style="edgeLabel;html=1;align=center;verticalAlign=middle;resizable=0;points=[];" vertex="1" connectable="0" parent="gtnXbsTn_2QHaUjAw1lT-4">
          <mxGeometry x="-0.0506" relative="1" as="geometry">
            <mxPoint as="offset" />
          </mxGeometry>
        </mxCell>
        <mxCell id="gtnXbsTn_2QHaUjAw1lT-7" value="" style="endArrow=classic;startArrow=classic;html=1;rounded=0;exitX=0.5;exitY=0;exitDx=0;exitDy=0;entryX=0.091;entryY=0.922;entryDx=0;entryDy=0;entryPerimeter=0;" edge="1" parent="1" source="RNrug4H_M12smfIYPm7i-6" target="RNrug4H_M12smfIYPm7i-40">
          <mxGeometry width="50" height="50" relative="1" as="geometry">
            <mxPoint x="490" y="380" as="sourcePoint" />
            <mxPoint x="540" y="330" as="targetPoint" />
          </mxGeometry>
        </mxCell>
        <mxCell id="gtnXbsTn_2QHaUjAw1lT-8" value="app:mongodb" style="edgeLabel;html=1;align=center;verticalAlign=middle;resizable=0;points=[];" vertex="1" connectable="0" parent="gtnXbsTn_2QHaUjAw1lT-7">
          <mxGeometry x="0.0219" y="1" relative="1" as="geometry">
            <mxPoint as="offset" />
          </mxGeometry>
        </mxCell>
        <mxCell id="gtnXbsTn_2QHaUjAw1lT-10" value="" style="endArrow=classic;startArrow=classic;html=1;rounded=0;entryX=0.75;entryY=1;entryDx=0;entryDy=0;exitX=0.5;exitY=0;exitDx=0;exitDy=0;" edge="1" parent="1" source="RNrug4H_M12smfIYPm7i-12">
          <mxGeometry width="50" height="50" relative="1" as="geometry">
            <mxPoint x="460" y="270" as="sourcePoint" />
            <mxPoint x="425.75" y="116" as="targetPoint" />
          </mxGeometry>
        </mxCell>
        <mxCell id="gtnXbsTn_2QHaUjAw1lT-11" value="Ingress&lt;div&gt;127.0.0.1:80&lt;/div&gt;" style="ellipse;whiteSpace=wrap;html=1;" vertex="1" parent="1">
          <mxGeometry x="350" y="80" width="120" height="80" as="geometry" />
        </mxCell>
        <mxCell id="gtnXbsTn_2QHaUjAw1lT-12" value="" style="endArrow=classic;html=1;rounded=0;exitX=0.925;exitY=0.738;exitDx=0;exitDy=0;exitPerimeter=0;" edge="1" parent="1" source="gtnXbsTn_2QHaUjAw1lT-11" target="RNrug4H_M12smfIYPm7i-3">
          <mxGeometry width="50" height="50" relative="1" as="geometry">
            <mxPoint x="470" y="250" as="sourcePoint" />
            <mxPoint x="520" y="200" as="targetPoint" />
          </mxGeometry>
        </mxCell>
        <mxCell id="gtnXbsTn_2QHaUjAw1lT-15" value="&lt;a href=&quot;http://webnodb.sledrich.net4255.luxbulb.org/&quot;&gt;http://webnodb.sledrich.net4255.luxbulb.org/&lt;/a&gt;" style="edgeLabel;html=1;align=center;verticalAlign=middle;resizable=0;points=[];" vertex="1" connectable="0" parent="gtnXbsTn_2QHaUjAw1lT-12">
          <mxGeometry x="0.2501" relative="1" as="geometry">
            <mxPoint x="64" as="offset" />
          </mxGeometry>
        </mxCell>
        <mxCell id="gtnXbsTn_2QHaUjAw1lT-13" value="" style="endArrow=classic;html=1;rounded=0;exitX=0.65;exitY=0.963;exitDx=0;exitDy=0;exitPerimeter=0;" edge="1" parent="1" source="gtnXbsTn_2QHaUjAw1lT-11" target="RNrug4H_M12smfIYPm7i-2">
          <mxGeometry width="50" height="50" relative="1" as="geometry">
            <mxPoint x="470" y="250" as="sourcePoint" />
            <mxPoint x="520" y="200" as="targetPoint" />
          </mxGeometry>
        </mxCell>
        <mxCell id="gtnXbsTn_2QHaUjAw1lT-14" value="&lt;a href=&quot;http://webnodb.sledrich.net4255.luxbulb.org/&quot;&gt;http://webdb.sledrich.net4255.luxbulb.org/&lt;/a&gt;" style="edgeLabel;html=1;align=center;verticalAlign=middle;resizable=0;points=[];" vertex="1" connectable="0" parent="gtnXbsTn_2QHaUjAw1lT-13">
          <mxGeometry x="0.2121" relative="1" as="geometry">
            <mxPoint x="-22" y="-15" as="offset" />
          </mxGeometry>
        </mxCell>
        <mxCell id="gtnXbsTn_2QHaUjAw1lT-16" value="PC hote" style="ellipse;whiteSpace=wrap;html=1;" vertex="1" parent="1">
          <mxGeometry x="350" y="-40" width="120" height="80" as="geometry" />
        </mxCell>
      </root>
    </mxGraphModel>
  </diagram>
</mxfile>
